<svg id="svg" width="100%" height="100%" viewBox="0 0 1440 590" xmlns="http://www.w3.org/2000/svg" class="transition duration-300 ease-in-out delay-150">
	<path d="M 0,600 L 0,112 C 55.45047864506628,104.36238954344624 110.90095729013257,96.72477908689248 162,95 C 213.09904270986743,93.27522091310752 259.846649484536,97.4632731958763 332,136 C 404.153350515464,174.5367268041237 501.7124447717232,247.42212812960236 563,299 C 624.2875552282768,350.57787187039764 649.3035714285713,380.8482142857143 703,393 C 756.6964285714287,405.1517857142857 839.0732695139911,399.1850147275405 897,414 C 954.9267304860089,428.8149852724595 988.4033505154641,464.41172680412376 1052,499 C 1115.5966494845359,533.5882731958762 1209.313328424153,567.1680780559647 1279,590 C 1348.686671575847,612.8319219440353 1394.3433357879235,624.9159609720177 1440,637 L 1440,600 L 0,600 Z" stroke="none" stroke-width="0" fill="#9900ef" fill-opacity="0.4" class="transition-all duration-300 ease-in-out delay-150 path-0"></path>
	<path d="M 0,600 L 0,262 C 64.18335787923417,265.0856958762887 128.36671575846833,268.17139175257734 197,273 C 265.63328424153167,277.82860824742266 338.7164948453608,284.40012886597935 388,308 C 437.2835051546392,331.59987113402065 462.7673048600884,372.22809278350513 523,398 C 583.2326951399116,423.77190721649487 678.2142857142858,434.68749999999994 739,471 C 799.7857142857142,507.31250000000006 826.3755522827688,569.0219072164949 880,597 C 933.6244477172312,624.9780927835051 1014.2835051546392,619.2248711340205 1079,646 C 1143.7164948453608,672.7751288659795 1192.4904270986744,732.0786082474226 1250,761 C 1307.5095729013256,789.9213917525774 1373.7547864506628,788.4606958762887 1440,787 L 1440,600 L 0,600 Z" stroke="none" stroke-width="0" fill="#9900ef" fill-opacity="0.53" class="transition-all duration-300 ease-in-out delay-150 path-1"></path>
	<path d="M 0,600 L 0,412 C 47.15261413843889,381.26629234167893 94.30522827687778,350.53258468335787 152,382 C 209.69477172312222,413.46741531664213 277.93170103092785,507.1359536082475 347,541 C 416.06829896907215,574.8640463917525 485.9679675994108,548.9236008836523 541,572 C 596.0320324005892,595.0763991163477 636.1964285714287,667.1696428571429 705,692 C 773.8035714285713,716.8303571428571 871.2463181148747,694.3978276877762 928,703 C 984.7536818851253,711.6021723122238 1000.818298969072,751.2390463917526 1054,792 C 1107.181701030928,832.7609536082474 1197.4804860088366,874.6459867452135 1268,899 C 1338.5195139911634,923.3540132547865 1389.2597569955817,930.1770066273932 1440,937 L 1440,600 L 0,600 Z" stroke="none" stroke-width="0" fill="#9900ef" fill-opacity="1" class="transition-all duration-300 ease-in-out delay-150 path-2"></path>
</svg>
